<svg width="114" height="76" viewBox="0 0 114 76" fill="none" xmlns="http://www.w3.org/2000/svg">
<rect width="114" height="76" rx="4" fill="white"/>
<g style="mix-blend-mode:multiply" opacity="0.6">
<ellipse cx="59.575" cy="32.5748" rx="24.825" ry="25.275" fill="#E2F4FE"/>
</g>
<path opacity="0.0973075" fill-rule="evenodd" clip-rule="evenodd" d="M30.8242 67.233C30.8242 68.4424 44.0437 69.4229 60.3508 69.4229C76.6577 69.4229 89.8774 68.4424 89.8774 67.233C89.8774 66.0232 76.6577 65.043 60.3508 65.043C44.0437 65.043 30.8242 66.0232 30.8242 67.233Z" fill="#2B7285"/>
<g style="mix-blend-mode:multiply" opacity="0.8">
<rect x="30.8242" y="48.3516" width="59.2042" height="4.98403" fill="#FFDF9F"/>
</g>
<g style="mix-blend-mode:multiply" opacity="0.9">
<rect x="32.082" y="38.3203" width="56.5217" height="2.33423" fill="#FFDF9F"/>
</g>
<g style="mix-blend-mode:multiply" opacity="0.8">
<rect x="32.082" y="33.6523" width="56.5217" height="2.33423" fill="#FFDF9F"/>
</g>
<g style="mix-blend-mode:multiply" opacity="0.8">
<rect x="32.082" y="42.9893" width="56.5217" height="2.33423" fill="#FFDF9F"/>
</g>
<g style="mix-blend-mode:multiply">
<rect x="33.8457" y="32.5723" width="3.17166" height="34.2841" fill="#FFDF9F"/>
</g>
<g style="mix-blend-mode:multiply">
<rect x="83.8359" y="31.9678" width="3.17167" height="34.8882" fill="#FFDF9F"/>
</g>
<path fill-rule="evenodd" clip-rule="evenodd" d="M74.0209 30.2319C70.8275 31.9217 71.5322 35.0542 71.2449 37.9769C70.9575 40.8996 70.9451 41.8433 70.8894 42.5549L64.2331 45.5528L62.3048 43.4644L68.5856 40.4138C68.5856 40.4138 69.3606 35.5264 70.0979 33.2171C70.8351 30.9078 72.6292 30.4397 74.0209 30.2319Z" fill="#2B7285"/>
<path d="M77.5714 29.9295C77.5714 29.9295 75.3815 32.5726 74.0222 30.2316C74.0222 30.2316 72.5263 30.4137 71.6041 32.2547C70.6863 36.6817 70.3974 42.1631 70.6913 47.2268C72.961 47.0994 82.5433 46.7978 82.5433 46.7978C82.5433 42.6161 82.8824 35.2136 81.8294 30.8473C80.3034 30.3516 79.7614 30.2316 77.5714 29.9295Z" fill="#2B7285"/>
<path d="M72.7675 20.2128C74.7577 19.5011 76.6626 20.3741 76.8258 21.0997C76.426 21.1739 73.9521 19.6792 71.6575 21.9164C70.9471 23.1607 71.0958 24.3455 71.0958 24.3455L70.7843 23.2052C70.6358 22.4056 70.7774 20.9245 72.7675 20.2128Z" fill="#D8D8D8"/>
<path d="M75.7781 31.934C74.7905 31.9244 73.9966 31.2279 74.0049 30.3784L74.0162 29.221C72.3697 29.2049 71.0462 28.0438 71.0601 26.6278L71.0906 23.4989C71.1071 21.814 72.7085 20.4633 74.6677 20.4825C76.5312 20.5007 78.0101 21.8436 77.9303 23.4446L77.5799 30.4664C77.5385 31.2946 76.7416 31.9435 75.7781 31.934Z" fill="#8E6E25"/>
<path d="M73.3691 24.6621L72.0944 26.3009L73.353 26.3132L73.3691 24.6621Z" fill="#7C5600"/>
<ellipse rx="0.377588" ry="0.353819" transform="matrix(-0.999952 -0.00977155 -0.00977148 0.999952 72.1112 24.5318)" fill="#303030"/>
<ellipse rx="0.377962" ry="0.35382" transform="matrix(-0.999952 -0.00977153 -0.0097715 0.999952 74.3764 24.5542)" fill="#303030"/>
<g style="mix-blend-mode:multiply" opacity="0.8">
<path d="M77.2978 24.0458L77.2759 26.2866C77.2759 26.2866 78.3144 26.195 78.293 25.1759C78.2715 24.1571 77.2978 24.0458 77.2978 24.0458Z" fill="#7C5600"/>
</g>
<path d="M74.4785 27.1504L72.4648 27.1307C72.4648 27.1307 72.5364 27.9019 73.4648 27.844C74.3937 27.786 74.4785 27.1504 74.4785 27.1504Z" fill="#7C5600"/>
<path fill-rule="evenodd" clip-rule="evenodd" d="M82.1019 30.8574C84.3423 32.4997 84.6234 35.7328 84.3361 38.6555C84.0487 41.5782 83.2507 41.4904 81.7577 42.3241L75.1014 45.322L73.1731 43.2335L80.5 39.664C80.5 39.664 80.0495 35.6621 80.2671 33.7706C80.4847 31.8792 81.0658 30.6245 82.1019 30.8574Z" fill="#2B7285"/>
<path fill-rule="evenodd" clip-rule="evenodd" d="M82.5044 46.5311V46.5311C82.6549 48.5974 81.7659 50.6029 80.1337 51.8789L78.5919 53.0844L75.6009 55.875L75.9726 64.7304L71.8567 64.1262L70.3532 56.4058C70.2595 55.9246 70.3077 55.4266 70.4918 54.9724L70.7627 54.3043C71.9332 51.417 73.671 48.7938 75.8733 46.5901V46.5901L82.5044 46.5311Z" fill="#00C5A3"/>
<path fill-rule="evenodd" clip-rule="evenodd" d="M70.8905 46.7413V46.7413C66.2585 49.8599 63.9159 55.4276 64.9249 60.9196L65.418 63.6033L69.7438 64.051L69.0581 56.9576C68.9291 55.6235 69.4769 54.3134 70.5171 53.4682L72.4763 51.8764L76.1766 46.5903L70.8905 46.7413Z" fill="#00C5A3"/>
<path fill-rule="evenodd" clip-rule="evenodd" d="M65.0287 44.6225C65.0287 44.6225 60.2513 47.1927 59.9779 46.776C59.7044 46.3594 62.733 44.4302 62.733 44.4302L61.2073 44.3031C61.2073 44.3031 62.3226 43.48 63.3201 43.7324L65.0287 44.6225Z" fill="#907633"/>
<g style="mix-blend-mode:multiply">
<path fill-rule="evenodd" clip-rule="evenodd" d="M69.0765 63.8354C68.8697 64.5457 69.4284 65.2512 69.4284 65.2512L69.6206 65.8576L68.8666 66.4605C68.3137 66.9027 67.5866 67.0896 66.8967 66.9315C66.5046 66.8414 66.232 66.6723 66.4783 66.3558C67.0525 65.6173 66.659 63.5721 66.659 63.5721C66.659 63.5721 69.2833 63.1251 69.0765 63.8354Z" fill="#977833"/>
</g>
<g style="mix-blend-mode:multiply">
<path fill-rule="evenodd" clip-rule="evenodd" d="M75.4446 64.3698C75.2172 64.9954 75.7497 65.593 75.7497 65.593L75.9215 66.1156L75.1545 66.6646C74.5919 67.0673 73.8645 67.2529 73.1847 67.1366C72.7985 67.0702 72.5332 66.9313 72.7875 66.6477C73.3803 65.9861 73.0535 64.2157 73.0535 64.2157C73.0535 64.2157 75.6719 63.7442 75.4446 64.3698Z" fill="#977833"/>
</g>
<g style="mix-blend-mode:multiply">
<path fill-rule="evenodd" clip-rule="evenodd" d="M69.5659 65.7928C69.854 65.8376 69.8215 67.474 69.8215 67.474C69.8215 67.474 66.8132 67.9948 66.1242 68.0358C64.4129 68.1372 63.4482 68.1265 63.2567 67.727C63.0651 67.3271 65.3667 66.459 65.4751 66.3372C65.8041 66.0087 66.1515 65.6998 66.5156 65.412C66.8462 65.1628 66.9586 66.2668 66.9586 66.2668C67.4017 67.1216 69.2776 65.7481 69.5659 65.7928" fill="#2B7285"/>
</g>
<g style="mix-blend-mode:multiply">
<path fill-rule="evenodd" clip-rule="evenodd" d="M75.8738 65.8771C76.1693 65.889 76.3104 67.5184 76.3104 67.5184C76.3104 67.5184 73.3307 68.3766 72.6399 68.4952C70.9242 68.7899 69.9496 68.8884 69.7139 68.5131C69.4782 68.1377 71.7081 67.0146 71.8044 66.8813C72.1015 66.5176 72.4191 66.1713 72.7558 65.8442C73.063 65.5592 73.2937 66.6435 73.2937 66.6435C73.8316 67.4424 75.5783 65.8655 75.8738 65.8771" fill="#2B7285"/>
</g>
<path d="M78.4992 24.4276C78.4992 24.4276 78.0064 24.1072 77.5526 24.572C76.4936 25.2211 76.3611 23.7769 76.7552 23.3028C77.3182 22.6256 77.261 22.0055 76.5152 20.8971C76.5152 20.8971 79.0412 21.3633 78.4992 24.4276Z" fill="#D8D8D8"/>
<g style="mix-blend-mode:multiply" opacity="0.8">
<path d="M53.3458 64.7987C53.1697 55.6963 52.5547 54.2917 52.5547 54.2917L56.4548 54.0635L55.9568 57.37L55.1183 63.1727L55.0731 65.1715L53.3458 64.7987Z" fill="#7C5600"/>
</g>
<g style="mix-blend-mode:multiply" opacity="0.8">
<path d="M48.4857 55.2795C48.4857 55.2795 48.3154 55.4488 48.8344 65.2778L50.2914 65.6511L52.3733 54.748L48.4857 55.2795Z" fill="#7C5600"/>
</g>
<path d="M53.1342 48.9778C55.3241 50.1105 56.8142 50.7728 57.3428 54.02L54.5084 54.4368L48.0059 46.7672L49.6732 46.3232C51.4238 47.9906 51.1219 47.937 53.1342 48.9778Z" fill="#2B7285"/>
<path fill-rule="evenodd" clip-rule="evenodd" d="M57.3388 54.0662C56.7673 54.1213 49.7063 55.3456 48.4226 56.3273C45.3953 54.0393 44.1538 53.4392 42.578 52.8323C41.0023 52.2254 39.1476 51.8729 38.1571 49.4647C37.5017 47.4905 38.0019 45.9066 38.0019 45.9066C38.0019 45.9066 45.9216 46.1567 49.5897 46.3234" fill="#2B7285"/>
<path opacity="0.7" d="M46.5667 31.0857C46.5088 28.9421 46.5695 24.7284 47.2631 22.7918C47.3608 22.5191 47.2539 22.0761 47.0971 21.8325C46.7451 21.2857 47.428 20.87 48.0333 21.1076L48.5308 21.3029C48.7104 21.3734 48.8699 21.4901 48.9733 21.6531C49.5159 22.5086 49.9701 23.9326 50.0438 25.0956C50.1165 26.2419 50.1834 27.2795 50.2401 28.151C50.341 29.7002 49.199 31.0857 47.6464 31.0857C46.4055 31.0857 46.8523 30.7755 46.5667 31.0857C46.5789 31.5394 46.5965 31.9004 46.6145 32.1274C46.7247 33.5157 46.2908 31.3853 46.5667 31.0857Z" fill="#C4C4C4"/>
<g style="mix-blend-mode:multiply">
<path fill-rule="evenodd" clip-rule="evenodd" d="M48.4832 64.3318C48.404 64.1539 47.9068 66.2635 47.8386 66.3722C47.7704 66.4807 50.2845 67.1442 50.531 67.2243C51.1555 67.427 52.3089 67.768 53.1642 67.4198C54.0194 67.0715 51.5159 65.9899 51.5159 65.9899L50.8963 64.9491C50.7414 64.689 50.0412 65.2974 50.0412 65.2974C49.6246 65.7579 48.5627 64.5095 48.4832 64.3318" fill="#FE635A"/>
</g>
<g style="mix-blend-mode:multiply">
<path fill-rule="evenodd" clip-rule="evenodd" d="M52.8341 64.212C52.6018 64.269 52.5087 66.1622 52.5087 66.1622C52.5087 66.1622 54.8607 66.7096 55.405 66.7443C56.7572 66.8301 57.5244 66.8 57.7057 66.334C57.8869 65.8679 55.353 64.9647 55.2758 64.8256C55.0384 64.4514 55.0472 64.2448 54.7789 63.9186C54.5343 63.6363 54.7521 64.6772 54.7521 64.6772C54.0283 65.4159 53.0663 64.1549 52.8341 64.212Z" fill="#FE635A"/>
</g>
<path opacity="0.9" fill-rule="evenodd" clip-rule="evenodd" d="M41.1692 30.6771L40.1117 34.7277L37.918 46.1831L49.6103 46.3498L48.8388 31.5941L41.1692 30.6771Z" fill="#FFDF9F"/>
<g style="mix-blend-mode:multiply" opacity="0.7">
<path fill-rule="evenodd" clip-rule="evenodd" d="M46.8379 31.3437L47.3381 47.4333L49.6723 46.9331L48.8386 31.5938L46.8379 31.3437Z" fill="#F7544B"/>
</g>
<path fill-rule="evenodd" clip-rule="evenodd" d="M46.8271 31.6878L46.737 30.0976C48.0818 30.1075 49.1804 29.0117 49.1905 27.6498L49.2128 24.6407C49.2248 23.0201 47.937 21.6968 46.3366 21.6849C44.8145 21.6737 43.5862 22.9422 43.6273 24.4829L43.9055 31.7171C43.9268 32.514 44.5677 33.1505 45.3552 33.1564C46.1619 33.1623 46.821 32.5048 46.8271 31.6878Z" fill="#8E6E25"/>
<path fill-rule="evenodd" clip-rule="evenodd" d="M46.6391 25.5394C46.6375 25.7479 46.4672 25.9157 46.2586 25.9142C46.0501 25.9126 45.8824 25.7423 45.8839 25.5338C45.8855 25.3253 46.0557 25.1575 46.2642 25.159C46.4728 25.1606 46.6406 25.3309 46.6391 25.5394" fill="#003147"/>
<path fill-rule="evenodd" clip-rule="evenodd" d="M48.9047 25.556C48.9031 25.7645 48.7329 25.9323 48.5244 25.9308C48.3157 25.9292 48.148 25.7589 48.1495 25.5504C48.1511 25.3419 48.3213 25.1741 48.53 25.1756C48.7385 25.1772 48.9062 25.3475 48.9047 25.556" fill="#003147"/>
<g style="mix-blend-mode:multiply" opacity="0.59575">
<path fill-rule="evenodd" clip-rule="evenodd" d="M47.5449 25.4697L48.4377 27.2888L47.5315 27.2821L47.5449 25.4697Z" fill="#7C5600"/>
</g>
<g style="mix-blend-mode:multiply" opacity="0.59575">
<path fill-rule="evenodd" clip-rule="evenodd" d="M46.4707 27.8789L47.83 27.889C47.83 27.889 47.7707 28.7108 47.1448 28.6347C46.519 28.5586 46.4707 27.8789 46.4707 27.8789" fill="#7C5600"/>
</g>
<g style="mix-blend-mode:multiply" opacity="0.7">
<path fill-rule="evenodd" clip-rule="evenodd" d="M41.1689 30.6771L39.5849 35.7624L37.7509 47.2668L42.6695 47.8503L43.0863 31.0939L41.1689 30.6771Z" fill="#F7544B"/>
</g>
<path fill-rule="evenodd" clip-rule="evenodd" d="M53.3027 43.7235C53.3027 43.7235 57.7486 43.09 57.6895 42.5818C57.6305 42.0736 54.6454 42.2242 54.6454 42.2242L55.538 41.2282C55.538 41.2282 53.7282 41.4871 53.2387 42.2799L53.3027 43.7235Z" fill="#9A7216"/>
<path fill-rule="evenodd" clip-rule="evenodd" d="M48.7269 31.6046C48.7546 31.5172 49.7805 31.8584 50.2138 33.9078C50.8418 36.8781 51.0787 41.5078 51.5786 41.7783L53.3592 41.9501L53.9182 43.9744C50.415 43.9744 49.8109 44.3712 49.5088 43.5405C49.0557 41.5016 49.1751 40.515 48.7882 34.8683L48.7269 31.6046Z" fill="#FE635A"/>
<g style="mix-blend-mode:multiply" opacity="0.3">
<path fill-rule="evenodd" clip-rule="evenodd" d="M48.3012 31.6105C48.3288 31.5231 49.3547 31.8642 49.788 33.9137C50.416 36.8839 50.653 41.5137 51.1528 41.7841L52.9334 41.9559L53.4924 43.9802C49.9892 43.9802 49.3851 44.3771 49.083 43.5464C48.6299 41.5075 48.7494 40.5209 48.3625 34.8742L48.3012 31.6105Z" fill="#F6544B"/>
</g>
<path fill-rule="evenodd" clip-rule="evenodd" d="M37.9699 32.7265L33.8921 39.3513C33.48 40.1334 34.1335 41.3657 34.9493 41.7128L40.0456 45.6727L41.6639 43.1592L37.5254 40.1424C37.2238 40.0059 37.0915 39.6505 37.2307 39.3513L38.9516 37.4084C38.9516 37.4084 40.3109 35.445 40.9905 34.2368C41.6702 33.0285 42.1233 30.8501 42.1233 30.8501C42.1233 30.8501 40.5375 30.5365 39.6313 30.9896C38.7251 31.4427 38.2801 32.1377 37.9699 32.7265Z" fill="#FE635A"/>
<path fill-rule="evenodd" clip-rule="evenodd" d="M41.0855 43.7136C41.0855 43.7136 44.314 42.9766 44.5334 46.022C44.5924 46.4379 42.2958 44.7936 42.2958 44.7936L43.1254 45.6809C43.1254 45.6809 41.1946 45.4463 40.4672 44.835L41.0855 43.7136Z" fill="#8E6E25"/>
<path opacity="0.9" d="M41.9043 22.752C42.9422 20.7714 44.6767 19.9183 46.4862 20.539L47.2642 21.981C47.2902 22.0001 47.3082 22.0325 47.317 22.0788L47.2642 21.981C47.0398 21.8166 46.2159 22.6508 45.504 24.2682C45.3509 24.6159 43.8918 24.2527 43.8528 25.197C43.7687 27.2341 43.8075 29.1154 43.8528 30.5673L41.3358 30.4839C41.3358 28.9 40.8663 24.7326 41.9043 22.752Z" fill="#D2D1D1"/>
<path d="M47.2154 21.9441L46.4883 20.5449C50.2859 19.9 50.206 25.6802 50.1129 28.6958L49.124 28.3457C49.9255 23.8272 48.0632 22.0904 47.2154 21.9441Z" fill="#D2D1D1"/>
<g style="mix-blend-mode:multiply" opacity="0.8">
<path fill-rule="evenodd" clip-rule="evenodd" d="M43.9039 25.8036L43.8918 27.4414C43.8918 27.4414 42.9529 27.36 42.9868 26.6158C43.0207 25.8715 43.9039 25.8036 43.9039 25.8036" fill="#7C5600"/>
</g>
<path opacity="0.6" fill-rule="evenodd" clip-rule="evenodd" d="M41.9884 46.144C41.8725 46.4014 41.8411 46.735 41.8546 46.9636C41.8687 47.2022 41.6867 47.407 41.4481 47.421C41.2096 47.4351 41.0048 47.2531 40.9907 47.0146C40.972 46.6977 41.0082 46.2131 41.1995 45.7885C41.3999 45.3436 41.801 44.9199 42.4843 44.9199C43.2384 44.9199 43.7116 45.3014 43.9717 45.7656C44.2151 46.2 44.2682 46.6924 44.2682 46.9891V66.648C44.2682 66.887 44.0745 67.0807 43.8355 67.0807C43.5965 67.0807 43.4028 66.887 43.4028 66.648V46.9891C43.4028 46.769 43.3594 46.4432 43.2167 46.1886C43.0907 45.9637 42.8883 45.7853 42.4843 45.7853C42.241 45.7853 42.0952 45.9071 41.9884 46.144Z" fill="#00C5A3"/>
<path opacity="0.9" d="M54.3867 41.0303H56.9543L56.6522 44.8061H54.6888L54.3867 41.0303Z" fill="#00C5A3"/>
<g style="mix-blend-mode:multiply">
<path d="M54.0918 41.2432H57.2635L57.0413 40.488H54.3139L54.0918 41.2432Z" fill="#00C5A3"/>
</g>
<g style="mix-blend-mode:multiply" opacity="0.3">
<path fill-rule="evenodd" clip-rule="evenodd" d="M81.6426 31.0068C80.8898 31.1892 80.4491 32.3301 80.2659 33.9222C80.0483 35.8137 80.4988 39.8156 80.4988 39.8156L73.1719 43.3224L75.1002 45.4736L81.7565 42.4757C81.9794 42.3512 82.1869 42.2473 82.3794 42.1508C82.455 42.1129 82.5283 42.0762 82.5994 42.0398C82.6227 38.2735 82.5415 33.9917 81.8368 31.0696C81.7703 31.048 81.7056 31.0271 81.6426 31.0068Z" fill="#2B7285"/>
</g>
<g style="mix-blend-mode:multiply" opacity="0.3">
<path fill-rule="evenodd" clip-rule="evenodd" d="M74.0502 30.1509C70.8568 31.8406 71.5615 34.9732 71.2742 37.8958C70.9868 40.8185 70.9744 41.7622 70.9187 42.4739L64.2624 45.4718L62.3341 43.3833L68.6149 40.3328C68.6149 40.3328 69.3899 35.4453 70.1272 33.1361C70.8644 30.8268 72.6585 30.3586 74.0502 30.1509Z" fill="#2B7285"/>
</g>
<g style="mix-blend-mode:multiply">
<path fill-rule="evenodd" clip-rule="evenodd" d="M71.5977 52.5678C72.7143 50.3267 74.1868 48.2767 75.9613 46.4991L76.2721 46.4902L72.5718 51.7763L71.5977 52.5678Z" fill="#00C5A3"/>
</g>
<g style="mix-blend-mode:multiply" opacity="0.458612">
<path fill-rule="evenodd" clip-rule="evenodd" d="M87.1672 67.9314C87.1672 67.9314 89.9998 66.8228 90.043 63.628C90.0863 60.4332 92.6869 57.7002 92.6869 57.7002C92.6869 57.7002 87.9113 57.7427 86.788 61.602C85.6647 65.4613 87.1672 67.9314 87.1672 67.9314" fill="#00C5A3"/>
</g>
<g style="mix-blend-mode:multiply" opacity="0.458612">
<path fill-rule="evenodd" clip-rule="evenodd" d="M83.6504 58.9516C83.6504 58.9516 85.9825 61.2388 85.2736 63.5465C84.5648 65.8542 87.1681 67.9313 87.1681 67.9313C87.1681 67.9313 89.6526 58.6277 83.6504 58.9516" fill="#00C5A3"/>
</g>
<g style="mix-blend-mode:multiply" opacity="0.458612">
<path fill-rule="evenodd" clip-rule="evenodd" d="M93.2498 60.5242C93.2498 60.5242 90.3191 61.974 90.2717 64.3869C90.2244 66.7999 87.1016 67.966 87.1016 67.966C87.1016 67.966 87.6471 58.3538 93.2498 60.5242" fill="#00C5A3"/>
</g>
<path opacity="0.094215" fill-rule="evenodd" clip-rule="evenodd" d="M84.2617 67.8036C84.2617 68.0225 85.5336 68.1999 87.1025 68.1999C88.6715 68.1999 89.9434 68.0225 89.9434 67.8036C89.9434 67.5847 88.6715 67.4072 87.1025 67.4072C85.5336 67.4072 84.2617 67.5847 84.2617 67.8036" fill="#2B7285"/>
<g style="mix-blend-mode:multiply" opacity="0.427037">
<path fill-rule="evenodd" clip-rule="evenodd" d="M34.2805 67.6004C34.2805 67.6004 36.6535 65.3813 35.467 62.1479C34.2805 58.9145 35.7992 55.1504 35.7992 55.1504C35.7992 55.1504 31.0958 57.0524 31.4705 61.3754C31.8451 65.6984 34.2805 67.6004 34.2805 67.6004" fill="#00C5A3"/>
</g>
<g style="mix-blend-mode:multiply" opacity="0.427037">
<path fill-rule="evenodd" clip-rule="evenodd" d="M27.25 59.938C27.25 59.938 30.4892 61.3311 30.6797 63.9273C30.8703 66.5235 34.3 67.6 34.3 67.6C34.3 67.6 33.1568 57.2784 27.25 59.938" fill="#00C5A3"/>
</g>
<g style="mix-blend-mode:multiply" opacity="0.427037">
<path fill-rule="evenodd" clip-rule="evenodd" d="M37.4504 57.7002C37.4504 57.7002 35.0803 60.3044 35.9737 62.7558C36.8672 65.2071 34.194 67.6002 34.194 67.6002C34.194 67.6002 30.9924 57.6962 37.4504 57.7002" fill="#00C5A3"/>
</g>
<path opacity="0.094215" fill-rule="evenodd" clip-rule="evenodd" d="M31 67.5488C31 67.7688 32.2742 67.9472 33.8461 67.9472C35.418 67.9472 36.6922 67.7688 36.6922 67.5488C36.6922 67.3288 35.418 67.1504 33.8461 67.1504C32.2742 67.1504 31 67.3288 31 67.5488" fill="#2B7285"/>
<path fill-rule="evenodd" clip-rule="evenodd" d="M74.9981 45.1835C74.9981 45.1835 70.6357 47.5284 70.4 47.0529C70.1642 46.5774 71.9006 45.1835 71.9006 45.1835L71.1621 44.7729C71.1621 44.7729 73.2337 43.6133 74.2184 43.912L74.9981 45.1835Z" fill="#907633"/>
</svg>
